<?xml version="1.0" encoding="utf-8"?>
<!-- Generator: Adobe Illustrator 21.0.0, SVG Export Plug-In . SVG Version: 6.00 Build 0)  -->
<svg version="1.1" id="Layer_1" xmlns="http://www.w3.org/2000/svg" xmlns:xlink="http://www.w3.org/1999/xlink" x="0px" y="0px"
	 viewBox="0 0 227.3 227.3" style="enable-background:new 0 0 227.3 227.3;" xml:space="preserve">
<style type="text/css">
	.st0{fill:url(#SVGID_1_);}
	.st1{fill:#D2AE6D;}
	.st2{fill:url(#SVGID_2_);}
</style>
<radialGradient id="SVGID_1_" cx="602.0047" cy="620.2074" r="79.4579" fx="579.5172" fy="615.465" gradientTransform="matrix(0.5425 0.9029 1.0526 -1.025 -818.7896 204.084)" gradientUnits="userSpaceOnUse">
	<stop  offset="2.974331e-07" style="stop-color:#D2AE6D"/>
	<stop  offset="0.4315" style="stop-color:#D1AE6D"/>
	<stop  offset="0.4445" style="stop-color:#C7AB70"/>
	<stop  offset="0.5331" style="stop-color:#8A9885"/>
	<stop  offset="0.6143" style="stop-color:#5A8896"/>
	<stop  offset="0.6853" style="stop-color:#377DA2"/>
	<stop  offset="0.7434" style="stop-color:#2276A9"/>
	<stop  offset="0.7814" style="stop-color:#1A74AC"/>
	<stop  offset="0.8938" style="stop-color:#0D6AAF"/>
	<stop  offset="1" style="stop-color:#0866B1"/>
</radialGradient>
<path class="st0" d="M178.6,93.1c-2.3,19-14.5,38.2-31.8,44.7c-31.9,12.6-73.5-4.5-80.7-38.6c-0.8-3.9-1-8-0.5-12.3
	c0.5-4.1,1.8-8,3.7-11.6c2.7-3.8,6.1-7.1,10.1-9.7c5.6-3.7,11.7-5.9,18-6.8c-4.3,1.4-7.7,3.2-10.4,5.6c-3.5,3.2-5.6,7-6.4,11.1
	c-1.1,5-0.7,9.8,0.6,14.3c5.2,17.1,22.6,28.3,40.7,30.5c16.6,2,32.1-3.2,42-16.9c7.1-9.8,11.3-23.1,7.5-35.1
	c-1.3-4-3.5-7.5-6.6-10.6c0.4,0.5,0.8,0.9,1.1,1.4c6.4,9.4,3.1,22.6-3.6,31.3c-1.2-2-2.4-4-3.8-6c5-4.6,8.3-10.8,7.9-17.8
	c-0.3-3.7-1.7-7.1-4.2-9.6c-1.5-1.4-3.2-2.5-5.1-3c-4.4-1.3-7.9,0.1-11.3,2.9c-0.6,0.5-1.1,0.7-1.7,0.9c-1.5,0.3-2.8-0.2-3.3-1.3
	c-0.9-1.9,0.5-4.2,2-5.3c1.6-1.2,3.9-1.8,6.1-2.1c5.4-0.7,10.3,0.8,14.9,3.8C176.5,61.1,180.2,79.6,178.6,93.1L178.6,93.1z
	 M158.6,94.3c-5.1,4.6-11.5,7.9-18.2,9.1c-15,2.7-33.7-2.9-43-15.4c-4.7-6.4-7.6-16.9-2.6-23.9c2.4-3.4,6.3-5.4,11.6-5.7
	c3.1,0.1,6.1,0.5,9.2,1.2c3.2,0.7,6.3,1.7,9.4,2.9c-2.8-1-5.4-1.3-7.8-1.1c-13,1-15.2,15-6.2,23.4c3.4,3.2,8,5.5,12.1,6.8
	c7.6,2.3,16.2,2.2,23.8-0.3c2.7-0.9,5.4-2.2,7.9-3.9C156.2,89.5,157.4,91.8,158.6,94.3L158.6,94.3z"/>
<path class="st1" d="M163.9,103.4c7.1-9.8,11.3-23.1,7.5-35.1c-1.3-4-3.5-7.5-6.6-10.6c0.4,0.5,0.8,0.9,1.1,1.4
	c6.4,9.4,3.1,22.6-3.6,31.3c-1.2-2-2.4-4-3.8-6c5-4.6,8.3-10.8,7.9-17.8c-0.3-3.7-1.7-7.1-4.2-9.6c-1.5-1.4-3.2-2.5-5.1-3
	c-4.4-1.3-7.9,0.1-11.3,2.9c-0.6,0.5-1.1,0.7-1.7,0.9c-1.5,0.3-2.8-0.2-3.3-1.3c-0.9-1.9,0.5-4.2,2-5.3c1.6-1.2,3.9-1.8,6.1-2.1
	c5.4-0.7,10.3,0.8,14.9,3.8c12.7,8.2,16.4,26.7,14.8,40.2l0,0"/>
<radialGradient id="SVGID_2_" cx="65.2375" cy="-691.639" r="87.7396" fx="61.1535" fy="-696.1472" gradientTransform="matrix(1 0 0 -1 0 -540)" gradientUnits="userSpaceOnUse">
	<stop  offset="0" style="stop-color:#3A4397"/>
	<stop  offset="0.2466" style="stop-color:#354699"/>
	<stop  offset="0.5296" style="stop-color:#2750A1"/>
	<stop  offset="0.8293" style="stop-color:#1060AC"/>
	<stop  offset="1" style="stop-color:#006CB5"/>
</radialGradient>
<path class="st2" d="M166.6,99.3c-3.2-7.8-7.8-15.3-14-22.2c-11.7-13-26.8-21.7-42.4-25.2c-16.3-3.7-33.1-2.1-47.9,7.1
	c-14.8,9.3-24.2,25.4-25.5,43.2c-1.3,18.6,5.7,38.8,21.1,55s35.1,24.5,54,25c17.9,0.5,34.5-5.9,46-18.8c7.1-8,11.4-17.5,13.1-27.4
	c0.5-2.8,0.8-5.7,0.8-8.6c0.1-3.4-0.1-6.8-0.5-10.2c-0.1-0.5-0.1-1-0.2-1.5c-1,1.7-2,3.3-3.1,4.9c-1.6,2.3-3.3,4.4-5.1,6.3l-0.1,0
	c-0.3,0.4,0.1,0-0.2,0.2c-0.1,0.1,0,0.2-0.1,0.2c-1.6,7-4.9,13.5-10.1,19c-8.9,9.3-21.6,13.7-35,12.8c-14-0.9-28.5-7.4-39.8-19.5
	c-11.5-12.2-16.8-27.1-16.2-40.9c0.6-13.4,6.7-25.3,17.9-32.8c10.5-7.1,23.6-8.7,36.2-6c12.1,2.6,23.9,9.3,33.1,19.6
	c1.9,2.1,3.6,4.3,5.1,6.5c1.3,1.9,2.4,3.8,3.5,5.7c2.3,4.4,4,8.9,5.1,13.5c0,0.1,2.5-3.2,2.5-3.2"/>
</svg>
