<svg id="Layer_1" enable-background="new 0 0 512.159 512.159" height="512" viewBox="0 0 512.159 512.159" width="512" xmlns="http://www.w3.org/2000/svg"><g><g><g><g><path d="m268.135 291.232s82.006 47.087 40.54 147.292c0 0-37.516-30.399-46.999-88.957-5.637-34.813 6.459-58.335 6.459-58.335z" fill="#fb2b3a"/></g><g><path d="m244.957 291.232s-82.006 47.087-40.54 147.292c0 0 37.516-30.399 46.999-88.957 5.638-34.813-6.459-58.335-6.459-58.335z" fill="#fb2b3a"/></g></g><path d="m256.592 296.582s45.015 55.336 26.612 117.828c-7.646 25.965-17.048 50.075-22.629 75.687-.974 4.472-7.388 4.346-8.229-.152-4.761-25.472-13.12-40.149-23.54-75.535-18.402-62.492 26.612-117.828 26.612-117.828z" fill="#fedf30"/><path d="m256.592 296.582h-1.173s-10.603 13.036-19.414 33.597c9.343 21.803 16.67 52.069 7.199 84.231-2.271 7.714-4.698 15.262-7.134 22.737 7.035 20.483 12.682 33.566 16.276 52.798.841 4.499 7.254 4.624 8.229.152 5.581-25.612 14.983-49.722 22.629-75.687 18.403-62.492-26.612-117.828-26.612-117.828z" fill="#fed402"/><g><g><path d="m253.347 152.312h43.39 9.233c37.308 0 54.602-24.506 73.736-56.605 39.541-66.336 94.554-36.183 124.64-88.028 0 0 .003 15.183-3.34 36.529-4.624 29.524-43.581 70.987-79.5 97.333 0 0-14.5 48.5-46.5 62.5l-16 21-61.506 21.709-43.293-20.094h3.598l-43.293 20.094s-49.506-14.708-76.006-35.708l-33.5-46.5-39-56c-61.89-45.395-58.341-100.863-58.341-100.863 30.085 51.845 85.099 21.692 124.64 88.028 19.133 32.099 36.428 56.605 73.736 56.605h9.233 43.39" fill="#fb2b3a"/></g><path d="m504.346 7.679s.157 48.455-58.005 71.918c-55.84 22.526-48.856 112.893-144.533 124.793h-91.765c-95.677-11.901-88.693-102.268-144.533-124.793-51.62-20.824-57.301-61.33-57.926-70.179-.449 12.52-.825 90.038 55.955 131.684h-33.233s28.934 79.523 88.246 79.523l-30.234 8.78c23.35 47.671 88.463 41.934 126.193 17.344l41.494-19.259-1.799-.835h3.598l-1.799.835 41.495 19.26c37.73 24.59 102.844 30.327 126.193-17.344l-30.234-8.78c59.311 0 88.246-79.523 88.246-79.523h-33.232c61.89-45.396 55.873-133.424 55.873-133.424z" fill="#fedf30"/><g><path d="m214.207 226.656 1.799.835 1.799-.835z" fill="#fedf30"/><path d="m504.346 7.679s.139 43.881-49.974 68.346c-7.849 23-21.669 47.305-45.899 65.077h33.232s-28.934 79.523-88.246 79.523l30.234 8.78c-9.454 19.302-25.757 29.846-44.315 33.93 32.897 6.279 68.358-1.352 84.315-33.93l-30.234-8.78c59.312 0 88.246-79.523 88.246-79.523h-33.232c61.891-45.394 55.873-133.423 55.873-133.423z" fill="#fed402"/></g><path d="m216.007 95.354c21.437 0 24.225 28.209 8.243 38.404-16.884 10.769-28.111 32.455-28.111 68.877 0 56.28 33.867 118.982 59.867 118.982s59.867-62.701 59.867-118.982c0-36.833-11.481-58.595-28.683-69.238-6.872-4.251-10.888-11.923-10.8-20.016l.384-35.565c37.618-12.572 15.844-60.777 15.844-60.777-9.026 27.487-40.401 27.487-40.401 27.487h-35.255z" fill="#fe646f"/><path d="m287.19 133.398c-6.872-4.251-10.888-11.923-10.801-20.016l.385-35.565c37.618-12.573 15.844-60.778 15.844-60.778-6.404 19.503-24.05 25.163-33.766 26.808 0 0 .922 4.719-6.394 17.018-3.465 5.825-5.51 12.382-5.583 19.159l-.253 33.358.172 6.05c.241 8.491 2.986 16.704 7.808 23.696 8.499 12.322 21.271 34.929 21.271 59.508 0 42.432-19.251 88.507-39.867 108.616 6.729 6.563 13.602 10.366 20 10.366 26 0 59.867-62.701 59.867-118.982 0-36.834-11.481-58.596-28.683-69.238z" fill="#fd4755"/><path d="m216.962 44.526v50.829h-40.919c-5.665 0-9.847-5.239-8.654-10.776 4.932-22.897 25.253-40.053 49.573-40.053z" fill="#fedf30"/></g></g><path d="m511.829 7.168c-.464-7.195-10.331-9.546-13.97-3.253-29.871 48.973-84.935 19.938-124.595 87.954-17.879 29.992-33.104 51.505-64.116 52.872-4.533-6.913-10.414-13.02-18.012-17.721-4.53-2.803-7.307-7.998-7.246-13.557l.329-30.539c32.788-14.541 20.754-57.624 15.234-68.973-2.759-6.111-11.867-5.621-13.96.748-7.179 21.863-32.241 22.318-33.274 22.327-12.567 0-25.225-.501-37.781.056-44.606.351-74.101 62.534-38.004 65.773h39.574c13.402 0 13.694 18.531 4.209 24.58-7.28 4.644-12.952 10.595-17.352 17.306-31.013-1.366-46.238-22.88-64.116-52.874-39.786-68.114-94.597-38.883-124.598-87.951-3.63-6.261-13.475-3.967-13.968 3.252-.065.943-1.505 23.425 4.893 51.847 6.788 30.15 19.947 55.562 38.467 74.587h-13.236c-5.842.909-8.191 4.264-7.048 10.064 11.333 31.13 34.269 64.034 65.171 77.897-4.93 1.116-9.65 5.421-6.847 11.141 20.28 43.732 78.203 48.064 117.925 30.344 4.889 13.854 11.285 27.481 19.645 39.602-34.927 34.171-43.886 88.54-21.663 138.742 1.966 4.759 7.909 5.991 11.65 2.959.327-.265 5.441-4.456 12.342-12.479-4.359 17.657-11.61 37.966-23.395 50.949-9.105 10.029-25.809 18.054-40.973 11.971-12.582-5.048-33.418-23.922-31.606-93.62 1.685-64.811-25.647-77.203-37.477-79.522-38.008-6.143-54.798 38.972-25.967 59.085 8.9 5.742 19.175 4.922 26.176-2.09 2.928-2.931 2.924-7.68-.007-10.606-2.932-2.926-7.681-2.924-10.606.008-.732.734-2.963 2.968-7.431.084-31.705-27.496 43.495-68.959 40.317 32.653-.446 44.381 4.449 91.108 41.014 107.931 20.288 8.138 43.465-.168 57.665-15.811 10.698-11.784 18.05-28.13 23.067-43.98 4.607 12.932 9.16 26.113 12.145 39.561 3.602 16.224 20.602 16.89 24.717-1.711 2.985-13.493 7.487-27.296 11.843-40.371 5.082 16.839 12.646 34.151 23.856 46.5 14.2 15.644 37.377 23.949 57.664 15.811 36.554-16.801 41.468-63.564 41.016-107.931-3.171-101.628 72.021-60.135 40.317-32.653-4.47 2.883-6.698.649-7.431-.085-2.928-2.933-7.677-2.934-10.606-.008-2.931 2.927-2.935 7.676-.007 10.606 7.001 7.012 17.274 7.832 26.177 2.09 28.793-20.049 12.086-65.24-25.967-59.085-11.83 2.32-39.162 14.712-37.477 79.522 1.812 69.698-19.024 88.572-31.606 93.62-15.16 6.083-31.869-1.941-40.972-11.971-7.012-7.725-16.2-22.365-23.053-49.498 6.251 7.075 10.767 10.775 11.08 11.028 3.742 3.032 9.683 1.801 11.651-2.959 22.399-50.52 13.079-105.294-22.305-139.393 8.137-11.962 14.397-25.326 19.205-38.95 39.71 17.728 97.65 13.385 117.924-30.345 2.788-5.688-1.867-9.988-6.778-11.12 30.921-13.872 53.758-46.733 65.103-77.917 1.144-5.801-1.206-9.156-7.048-10.064h-13.236c32.474-30.809 46.038-92.022 43.358-126.433zm-157.185 134.479c42.501-42.76 30.355-70.072 97.232-89.528 12.136-3.864 24.504-7.817 35.787-15.451-7.321 12.51-20.476 26.432-44.127 35.972-56.476 24.93-54.041 99.925-120.495 119.554-.692-10.76-2.583-22.294-6.634-33.019 14.52-1.827 27.104-7.608 38.237-17.528zm-178.211-53.792c-3.473 0 .024-7.703.646-9.191 5.662-13.499 17.985-23.38 32.384-25.967v35.158zm51.849 52.226c18.23-11.629 18.747-43.833-3.819-50.961v-37.094c19.684-1.252 43.83 5.932 65.949-16.336 2.741 14.059.6 29.984-16.016 35.013-3.032 1.013-5.088 3.837-5.123 7.032 0 0-.384 35.565-.384 35.565 2.01 38.901 40.727 15.966 39.47 90.061.001 24.666-7.337 53.174-19.335 76.431-22.218 45.284-43.629 45.702-66.037-.001-21.082-38.956-32.25-114.965 5.295-139.71zm-101.183 113.954c-11.614-3.92-20.812-10.668-27.442-20.112l20.987-6.095c8.119-2.358 6.363-14.703-2.092-14.703-41.219 0-67.081-44.157-76.814-64.523h21.801c7.095 0 10.155-9.352 4.436-13.548-23.946-17.564-40.105-43.95-48.048-78.421 10.629 12.692 24.953 22.728 42.779 29.919 8.586 3.463 15.936 8.85 23.13 16.95 6.524 7.349 17.599-2.773 11.215-9.96-8.668-9.761-18.067-16.598-28.733-20.901-23.721-9.569-36.885-23.566-44.194-36.123 11.344 7.734 23.797 11.711 36.014 15.601 22.727 7.234 46.227 14.714 65.727 47.429 15.81 27.446 36.299 56.29 69.743 59.629-4.062 10.751-5.949 22.311-6.639 33.074-33.356-10.503-49.679-33.484-64.686-58.152-5.039-8.286-17.855-.488-12.814 7.796 16.512 27.145 36.1 54.552 77.26 65.923.452 13.302 2.639 27.198 6.312 40.842-22.815 9.88-48.345 11.99-67.942 5.375zm80.296 171.103c-18.482-54.778 2.753-91.155 21.218-110.695 1.465 1.545 2.94 2.975 4.421 4.286-14.465 29.509-20.066 59.585-13.004 90.343-4.597 6.793-9.065 12.175-12.635 16.066zm98.304 0c-3.756-4.093-8.504-9.837-13.353-17.138 1.752-8.326 2.85-16.848 2.774-25.633-.085-9.707-15.082-9.563-15 .13.274 31.618-15.504 62.336-23.542 92.348-16.933-54.755-39.382-90.049-10.864-147.886 6.736 2.769 13.849 2.769 20.586-.001 2.295 4.779 4.337 9.623 6.085 14.473 3.224 8.95 17.398 4.037 14.111-5.084-2.132-5.918-4.652-11.823-7.515-17.621 1.662-1.471 3.316-3.088 4.957-4.854 18.758 19.563 40.388 56.074 21.761 111.266zm135.647-281.702c1.01 3.082 3.885 5.166 7.128 5.166h21.812c-14.343 30.089-39.995 64.523-76.826 64.523-8.454 0-10.211 12.345-2.092 14.702l20.987 6.095c-21.467 29.262-61.607 28.731-95.384 14.736 3.677-13.66 5.864-27.573 6.313-40.889 78.293-21.412 74.292-97.311 125.862-121.219 20.286-8.181 33.871-19.328 42.948-30.186-6.015 26.233-19.238 57.552-48.056 78.689-2.615 1.919-3.701 5.301-2.692 8.383z"/></g></svg>